<?xml version="1.0" standalone="no"?>
<!DOCTYPE svg PUBLIC "-//W3C//DTD SVG 20010904//EN"
 "http://www.w3.org/TR/2001/REC-SVG-20010904/DTD/svg10.dtd">
<svg version="1.0" xmlns="http://www.w3.org/2000/svg"
 width="100.000000pt" height="100.000000pt" viewBox="0 0 100.000000 100.000000"
 preserveAspectRatio="xMidYMid meet">

<g transform="translate(0.000000,100.000000) scale(0.100000,-0.100000)"
fill="#000000" stroke="none">
<path d="M430 634 c0 -7 7 -27 15 -45 8 -19 14 -29 15 -23 0 7 -7 27 -15 45
-8 19 -14 29 -15 23z"/>
<path d="M565 603 c-8 -20 -13 -38 -10 -41 3 -3 5 -3 5 0 0 3 7 22 15 42 8 20
13 36 10 36 -2 0 -12 -16 -20 -37z"/>
<path d="M474 530 c-25 -10 -54 -47 -54 -70 0 -8 8 0 18 19 11 23 29 39 52 47
19 7 28 13 20 13 -8 0 -25 -4 -36 -9z"/>
<path d="M325 521 c3 -6 13 -11 21 -11 10 0 14 -14 14 -53 l0 -53 155 1 c85 1
157 3 159 6 2 2 1 25 -3 51 -7 42 -5 48 11 54 11 3 18 8 15 10 -4 5 -77 -24
-77 -30 0 -2 8 -2 18 1 15 4 17 -1 14 -37 -4 -35 -7 -41 -26 -38 -17 2 -20 9
-18 33 2 24 -4 34 -31 53 -18 12 -37 22 -43 22 -5 0 -2 -5 6 -9 11 -7 14 -22
12 -55 -3 -38 -7 -46 -24 -46 -14 0 -24 12 -35 40 -9 22 -19 40 -23 40 -4 0
-14 -18 -23 -40 -12 -32 -20 -40 -41 -40 -23 0 -26 4 -26 35 0 20 5 35 12 35
17 0 6 8 -36 25 -21 9 -35 11 -31 6z m252 -63 c-3 -8 -6 -5 -6 6 -1 11 2 17 5
13 3 -3 4 -12 1 -19z m-102 -8 c3 -5 1 -10 -4 -10 -6 0 -11 5 -11 10 0 6 2 10
4 10 3 0 8 -4 11 -10z"/>
<path d="M130 486 c-16 -21 -6 -46 20 -46 11 0 20 -5 20 -11 0 -7 -10 -9 -25
-7 -17 4 -25 1 -25 -8 0 -19 44 -18 60 1 10 12 10 18 0 30 -7 8 -19 15 -26 15
-8 0 -14 5 -14 11 0 7 9 9 21 6 13 -3 19 -1 16 6 -6 18 -32 20 -47 3z"/>
<path d="M240 480 c-24 -24 -25 -43 -4 -64 16 -17 35 -19 70 -10 19 5 21 10
13 41 -12 55 -44 68 -79 33z m55 -30 c0 -18 -6 -26 -21 -28 -26 -4 -40 24 -23
45 18 21 44 11 44 -17z"/>
<path d="M727 493 c-4 -3 -7 -26 -7 -50 0 -41 1 -43 31 -43 17 0 28 4 24 10
-3 6 -13 10 -21 10 -8 0 -14 5 -14 10 0 6 7 10 15 10 8 0 15 5 15 10 0 6 -7
10 -15 10 -8 0 -15 5 -15 10 0 6 7 10 15 10 8 0 15 5 15 10 0 11 -33 14 -43 3z"/>
<path d="M833 493 c-21 -8 -15 -44 7 -50 29 -8 24 -23 -7 -23 -19 0 -24 -3
-16 -11 18 -18 58 -7 61 18 3 17 -3 24 -22 29 -31 7 -34 24 -5 24 11 0 17 5
14 10 -7 11 -13 11 -32 3z"/>
<path d="M343 383 c26 -2 68 -2 95 0 26 2 4 3 -48 3 -52 0 -74 -1 -47 -3z"/>
<path d="M618 383 c12 -2 32 -2 45 0 12 2 2 4 -23 4 -25 0 -35 -2 -22 -4z"/>
</g>
</svg>
